<svg xmlns="http://www.w3.org/2000/svg" viewBox="0 0 64 64" fill="none">
  <defs>
    <linearGradient id="bg" x1="8" y1="6" x2="56" y2="58" gradientUnits="userSpaceOnUse">
      <stop stop-color="#0F766E" />
      <stop offset="1" stop-color="#1D4ED8" />
    </linearGradient>
  </defs>
  <rect x="4" y="4" width="56" height="56" rx="14" fill="url(#bg)" />
  <path
    d="M24.5 17.5h8.2c5.2 0 8.4 2.6 8.4 6.9 0 2.9-1.5 4.9-4.2 6.1v.2c3.4.9 5.3 3.3 5.3 6.9 0 5.2-3.8 8.4-10 8.4H24.5V17.5Zm7.1 11c2.3 0 3.6-1.1 3.6-3 0-1.8-1.3-2.8-3.6-2.8h-1.3v5.8h1.3Zm.8 12.2c2.7 0 4.2-1.2 4.2-3.4 0-2.2-1.5-3.3-4.2-3.3h-2.1v6.7h2.1Z"
    fill="white"
  />
</svg>
